<svg width="139" height="185" viewBox="0 0 139 185" fill="none" xmlns="http://www.w3.org/2000/svg">
<path d="M115.613 69.234C116.67 69.7162 117.465 69.9947 118.224 70.3725C125.731 73.45 133.139 76.4927 140.646 79.5703C143.094 80.5398 143.496 82.5761 141.801 84.5468C141.26 85.1375 140.753 85.6289 140.147 86.0855C129.292 95.1036 117.499 102.343 104.669 107.77C93.8509 112.23 83.3849 117.593 73.0827 123.125C67.3106 126.231 61.4741 129.203 55.5383 132.14C50.0048 134.884 44.63 138.129 39.5183 141.578C34.1732 145.056 28.5353 148.098 22.8974 151.139C21.3874 151.948 19.5845 152.32 17.8513 152.493C16.3863 152.537 14.5937 152.243 13.2731 151.557C8.98353 149.161 8.04686 145.153 11.0035 141.172C12.9068 138.605 15.3014 136.546 17.567 134.218C18.4116 133.399 19.3555 132.614 20.1008 131.761C32.2593 118.07 44.3532 104.245 56.5116 90.5549C63.5921 82.4437 70.6029 74.5312 77.7776 66.7876C90.5666 53.2066 105.951 43.992 123.836 38.7762C126.677 37.988 129.483 37.299 132.423 36.5456C130.448 35.184 129.484 35.0693 128.763 36.4892C127.671 36.1063 126.579 35.7234 125.486 35.3405C124.493 34.9924 123.6 34.6791 123.218 33.5417C123.059 33.0401 122.334 32.563 121.803 32.4882C119.648 31.9559 117.359 31.488 115.204 30.9556C114.474 30.8112 113.744 30.6668 113.049 30.4232C112.254 30.1447 110.854 30.3228 110.974 29.0267C111.064 27.4972 112.494 27.5525 113.557 27.702C116.581 27.9816 119.605 28.2611 122.56 28.7392C130.793 30.0641 139.329 31.1607 147.576 33.7172C149.895 34.4185 152.144 35.3184 154.393 36.2184C157.104 37.3916 157.709 39.1648 156.735 41.9453C156.108 43.7328 155.089 45.0483 153.609 46.0905C150.951 47.9465 148.393 49.8373 145.705 51.46C136.57 56.8438 127.371 62.0935 118.236 67.4773C117.396 67.9635 116.656 68.4846 115.613 69.234Z" fill="#E0A179"/>
<path d="M87.1384 74.3786C94.81 76.5983 102.482 78.818 110.049 81.0011C112.594 81.7758 115.102 82.6551 117.647 83.4298C119.215 83.9794 120.568 84.8058 120.891 86.5621C121.178 88.4229 120.315 89.8807 118.793 90.873C117.518 91.8341 116.069 92.6174 114.658 93.2962C82.245 110.1 50.1403 127.364 18.9547 146.358C17.0465 147.449 15.1383 148.541 13.1255 149.596C11.7819 150.416 10.3392 150.849 8.88674 149.635C7.53884 148.459 7.59705 146.954 8.10995 145.49C9.49672 141.869 10.988 138.284 12.5838 134.736C15.8066 127.886 19.1706 120.967 22.3935 114.117C26.0139 106.467 29.3887 98.8481 33.1136 91.2347C36.9485 83.3078 41.0603 75.5953 45.0675 67.8462C46.8723 64.3714 48.5727 60.8599 50.4508 57.1761C49.3011 56.7731 48.256 56.4067 47.3153 56.077C44.1433 55.0824 40.8301 54.1557 37.6946 53.0567C33.8276 51.7011 33.2695 49.2757 35.9783 46.2352C37.6883 44.3701 39.5028 42.5416 41.4218 40.7498C43.9787 38.4775 46.7446 36.2784 49.3694 34.1472C57.1391 27.717 65.0134 21.3234 72.6787 14.8565C75.4446 12.6574 78.0111 12.0315 81.1832 13.026C86.2732 14.5755 91.3998 16.0205 96.4897 17.57C108.065 21.0407 119.745 24.5481 131.283 28.1234C134.351 29.0813 137.382 30.1437 140.308 31.1695C141.353 31.5359 142.294 31.8656 143.266 32.441C146.636 34.2092 147.225 36.8803 144.59 39.7118C143.413 41.0597 141.996 42.0887 140.543 43.2222C130.944 50.1846 120.66 56.0858 110.309 61.8458C103.491 65.5586 96.4339 68.9526 89.4443 72.4876C88.5974 72.8949 87.7505 73.3022 86.9714 73.8506C87.0393 73.9917 87.1072 74.1329 87.1384 74.3786Z" fill="#FBE8DE"/>
<path d="M50.6602 57.2493C49.406 56.8096 48.4654 56.4799 47.4202 56.1136C44.2848 55.0145 40.9716 54.0878 37.8362 52.9887C34.1782 51.7065 33.5156 49.2444 36.0832 46.2717C37.6521 44.4745 39.4299 42.7506 41.3123 41.0633C44.0103 38.7231 46.7762 36.524 49.4376 34.2883C57.3486 27.7902 65.2228 21.3966 72.9247 14.8252C75.445 12.6574 78.116 12.0681 81.2881 13.0626C86.2736 14.5755 91.2956 15.9838 96.2811 17.4967C107.961 21.0041 119.604 24.6159 131.388 28.1599C134.351 29.0812 137.278 30.107 140.204 31.1328C141.04 31.4259 141.876 31.719 142.676 32.1166C146.919 34.0734 147.571 37.2358 144.02 40.3335C141.108 42.9506 137.814 45.3167 134.489 47.4371C121.262 55.7097 107.899 63.7 93.8203 70.3833C91.5619 71.4694 89.408 72.5921 86.8673 73.8139C88.0062 74.9172 89.3024 74.9022 90.3475 75.2685C98.9597 77.818 107.676 80.4041 116.289 82.9535C117.02 83.21 117.788 83.3619 118.588 83.7595C121.3 85.0622 121.957 87.8744 119.787 90.0477C118.579 91.1499 117.094 92.0377 115.646 92.821C104.276 98.8105 92.9049 104.8 81.5343 110.789C61.4748 121.479 41.6868 132.733 22.1703 144.551C19.4831 146.191 16.6913 147.794 13.9362 149.293C13.335 149.669 12.6292 150.008 11.9967 150.139C9.78035 150.77 7.97776 149.551 8.08339 147.241C8.20948 145.877 8.58122 144.482 9.162 143.16C12.9344 134.742 16.8113 126.36 20.6515 118.083C24.926 108.902 29.0594 99.7886 33.5429 90.6808C37.3045 82.9629 41.3796 75.355 45.3136 67.8149C47.1184 64.3401 48.8187 60.8286 50.6602 57.2493ZM15.7691 141.72C15.9415 141.898 16.1139 142.076 16.3229 142.149C47.2316 122.941 79.4721 105.959 111.655 88.1361C109.461 87.3667 107.825 86.676 106.116 86.1944C97.8854 83.896 89.7225 81.7388 81.4917 79.4404C80.619 79.2518 79.7828 78.9587 78.9834 78.5611C75.89 77.0073 75.5151 74.0594 78.1086 71.6825C79.2798 70.6848 80.7279 69.9015 82.1761 69.1182C90.5093 64.7632 99.0462 60.8316 107.244 56.1943C117.208 50.5334 126.76 44.3758 136.484 38.396C137.227 37.9521 137.938 37.2626 139.177 36.406C136.564 35.4901 134.615 34.6895 132.593 34.0979C115.3 28.8579 98.0082 23.6178 80.7525 18.2733C79.2527 17.8649 78.4058 18.2722 77.4123 19.0975C69.6426 25.5277 61.8728 31.9579 54.103 38.3882C51.1227 40.8642 48.1424 43.3401 45.162 45.8161C44.4875 46.4012 43.7764 47.0907 42.8508 48.0572C44.105 48.4969 45.0456 48.8266 45.8817 49.1197C48.9493 50.0776 52.0535 50.931 54.9432 52.0613C57.624 53.1184 58.2607 54.9846 56.9946 57.592C55.0066 61.5894 52.8775 65.6547 50.785 69.6154C46.4167 78.0595 41.9806 86.3625 37.8215 94.8798C31.4544 108.022 25.3331 121.132 19.1439 134.102C18.0189 136.641 16.894 139.181 15.7691 141.72Z" fill="black"/>
</svg>
